<svg width="79" height="16" viewBox="0 0 79 16" fill="none" xmlns="http://www.w3.org/2000/svg">
<path d="M0.346955 15V0.0999987H6.06696C7.09362 0.0999987 8.00029 0.279999 8.78696 0.639999C9.58696 0.999999 10.2136 1.53333 10.667 2.24C11.1203 2.94667 11.347 3.82 11.347 4.86C11.347 5.87333 11.1136 6.73333 10.647 7.44C10.1936 8.14667 9.56696 8.68667 8.76696 9.06C7.98029 9.42 7.08029 9.6 6.06696 9.6H3.44695V15H0.346955ZM3.44695 6.9H6.08695C6.52695 6.9 6.90695 6.81333 7.22696 6.64C7.54696 6.46667 7.79362 6.22667 7.96696 5.92C8.15362 5.61333 8.24696 5.26 8.24696 4.86C8.24696 4.44667 8.15362 4.08667 7.96696 3.78C7.79362 3.47333 7.54696 3.23333 7.22696 3.06C6.90695 2.88667 6.52695 2.8 6.08695 2.8H3.44695V6.9ZM12.7152 15V4.08H15.7152V15H12.7152ZM12.7152 3.1V0.0999987H15.7152V3.1H12.7152ZM16.6505 15L20.4705 9.52L16.6305 4.08H20.1105L22.9905 8.32H21.4705L24.3505 4.08H27.8305L23.9905 9.52L27.7905 15H24.3305L21.5105 10.76H22.9505L20.1305 15H16.6505ZM28.7512 15V4.08H31.5512V6.74L31.2512 6.3C31.4112 5.46 31.7978 4.84 32.4112 4.44C33.0245 4.04 33.7578 3.84 34.6112 3.84C35.5178 3.84 36.3112 4.07333 36.9912 4.54C37.6845 4.99333 38.1178 5.60667 38.2912 6.38L37.4312 6.46C37.7912 5.56667 38.3045 4.90667 38.9712 4.48C39.6378 4.05333 40.4178 3.84 41.3112 3.84C42.0978 3.84 42.7912 4.01333 43.3912 4.36C44.0045 4.70667 44.4845 5.19333 44.8312 5.82C45.1778 6.43333 45.3512 7.15333 45.3512 7.98V15H42.3512V8.62C42.3512 8.19333 42.2712 7.82667 42.1112 7.52C41.9645 7.21333 41.7512 6.97333 41.4712 6.8C41.1912 6.62667 40.8512 6.54 40.4512 6.54C40.0645 6.54 39.7245 6.62667 39.4312 6.8C39.1512 6.97333 38.9312 7.21333 38.7712 7.52C38.6245 7.82667 38.5512 8.19333 38.5512 8.62V15H35.5512V8.62C35.5512 8.19333 35.4712 7.82667 35.3112 7.52C35.1645 7.21333 34.9512 6.97333 34.6712 6.8C34.3912 6.62667 34.0512 6.54 33.6512 6.54C33.2645 6.54 32.9245 6.62667 32.6312 6.8C32.3512 6.97333 32.1312 7.21333 31.9712 7.52C31.8245 7.82667 31.7512 8.19333 31.7512 8.62V15H28.7512ZM50.3054 15.24C49.5187 15.24 48.8387 15.1133 48.2654 14.86C47.6921 14.6067 47.2521 14.2467 46.9454 13.78C46.6387 13.3 46.4854 12.7333 46.4854 12.08C46.4854 11.4667 46.6254 10.9267 46.9054 10.46C47.1854 9.98 47.6121 9.58 48.1854 9.26C48.7721 8.94 49.4987 8.71333 50.3654 8.58L53.7054 8.04V10.24L50.9054 10.74C50.4787 10.82 50.1521 10.96 49.9254 11.16C49.6987 11.3467 49.5854 11.62 49.5854 11.98C49.5854 12.3133 49.7121 12.5733 49.9654 12.76C50.2187 12.9467 50.5321 13.04 50.9054 13.04C51.3987 13.04 51.8321 12.9333 52.2054 12.72C52.5787 12.5067 52.8654 12.22 53.0654 11.86C53.2787 11.4867 53.3854 11.08 53.3854 10.64V7.8C53.3854 7.38667 53.2187 7.04 52.8854 6.76C52.5654 6.48 52.1254 6.34 51.5654 6.34C51.0321 6.34 50.5587 6.48667 50.1454 6.78C49.7454 7.07333 49.4521 7.46 49.2654 7.94L46.8654 6.8C47.0787 6.18667 47.4187 5.66 47.8854 5.22C48.3521 4.78 48.9121 4.44 49.5654 4.2C50.2187 3.96 50.9321 3.84 51.7054 3.84C52.6254 3.84 53.4387 4.00667 54.1454 4.34C54.8521 4.67333 55.3987 5.14 55.7854 5.74C56.1854 6.32667 56.3854 7.01333 56.3854 7.8V15H53.5854V13.24L54.2654 13.12C53.9454 13.6 53.5921 14 53.2054 14.32C52.8187 14.6267 52.3854 14.8533 51.9054 15C51.4254 15.16 50.8921 15.24 50.3054 15.24ZM58.1855 15V4.08H60.9855V6.7L60.7855 6.32C61.0255 5.4 61.4189 4.78 61.9655 4.46C62.5255 4.12667 63.1855 3.96 63.9455 3.96H64.5855V6.56H63.6455C62.9122 6.56 62.3189 6.78667 61.8655 7.24C61.4122 7.68 61.1855 8.30667 61.1855 9.12V15H58.1855ZM71.151 15.12C69.831 15.12 68.8043 14.7667 68.071 14.06C67.351 13.34 66.991 12.34 66.991 11.06V6.68H65.151V4.08H65.251C65.811 4.08 66.2377 3.94 66.531 3.66C66.8377 3.38 66.991 2.96 66.991 2.4V1.6H69.991V4.08H72.551V6.68H69.991V10.86C69.991 11.2333 70.0577 11.5467 70.191 11.8C70.3243 12.04 70.531 12.22 70.811 12.34C71.091 12.46 71.4377 12.52 71.851 12.52C71.9443 12.52 72.051 12.5133 72.171 12.5C72.291 12.4867 72.4177 12.4733 72.551 12.46V15C72.351 15.0267 72.1243 15.0533 71.871 15.08C71.6177 15.1067 71.3777 15.12 71.151 15.12ZM75.389 15V12H78.389V15H75.389Z" fill="#0F73F6"/>
</svg>
